<svg id="Слой_2" data-name="Слой 2" xmlns="http://www.w3.org/2000/svg" viewBox="0 0 22.6 22.6"><defs><style>.cls-1{fill:none;stroke:#eb5e28;stroke-miterlimit:10;}.cls-2{fill:#eb5e28;}</style></defs><title>email_icon</title><circle class="cls-1" cx="11.3" cy="11.3" r="10.8"/><path class="cls-2" d="M14.1,16.7a6.3,6.3,0,0,1-2.7.6,4.5,4.5,0,0,1-4.6-4.7,5.6,5.6,0,0,1,5.5-5.8,4.2,4.2,0,0,1,4.4,4.3c0,2.3-1.3,3.6-2.7,3.6s-1.1-.4-1.1-1.3h-.1a2.3,2.3,0,0,1-2.1,1.3c-.9,0-1.6-.7-1.6-1.9a3.6,3.6,0,0,1,3.6-3.5,3.8,3.8,0,0,1,1.6.3l-.5,2.7c-.3,1.2-.1,1.7.4,1.7s1.6-1,1.6-2.8a3.4,3.4,0,0,0-3.6-3.7c-2.5,0-4.5,1.9-4.5,5a3.8,3.8,0,0,0,3.8,4.1,4.1,4.1,0,0,0,2.3-.6Zm-.9-6.5h-.7a2.6,2.6,0,0,0-2.4,2.7,1,1,0,0,0,1,1.1c.9,0,1.7-1.1,1.8-2Z" transform="translate(-0.7 -0.7)"/></svg>