<svg id="Слой_3" data-name="Слой 3" xmlns="http://www.w3.org/2000/svg" viewBox="0 0 22.6 22.6"><defs><style>.cls-1{fill:none;stroke:#eb5e28;stroke-miterlimit:10;}.cls-2{fill:#eb5e28;}</style></defs><title>map_icon</title><circle class="cls-1" cx="11.3" cy="11.3" r="10.8"/><path class="cls-2" d="M14.6,7.4A3.1,3.1,0,0,0,12,6.6a3.1,3.1,0,0,0-2.6.8A5.8,5.8,0,0,0,9,12.9a18.9,18.9,0,0,0,3,4.7,18.9,18.9,0,0,0,3-4.7A5.8,5.8,0,0,0,14.6,7.4Zm-2.5,4.3A1.7,1.7,0,0,1,10.4,10a1.7,1.7,0,0,1,1.7-1.6A1.6,1.6,0,0,1,13.7,10,1.6,1.6,0,0,1,12.1,11.7Z" transform="translate(-0.7 -0.7)"/></svg>