<svg id="Слой_1" data-name="Слой 1" xmlns="http://www.w3.org/2000/svg" viewBox="0 0 22.6 22.6"><defs><style>.cls-1{fill:#eb5e28;}.cls-2{fill:none;stroke:#eb5e28;stroke-miterlimit:10;}</style></defs><title>phone_icon</title><rect class="cls-1" x="5.2" y="10.7" width="3.2" height="0.45"/><rect class="cls-1" x="14.2" y="10.7" width="3.2" height="0.45"/><path class="cls-1" d="M12,6.7c-7.1,0-6.1,4.2-6.1,4.2H9.1S9,8.8,12,8.8s2.9,2.1,2.9,2.1h3.2S19.1,6.7,12,6.7Z" transform="translate(-0.7 -0.7)"/><path class="cls-1" d="M14.3,12.1V10.9s.1-1.4-2.3-1.4-2.3,1.4-2.3,1.4v1.2a5.8,5.8,0,0,0-3.6,5.2H17.9A5.8,5.8,0,0,0,14.3,12.1ZM12,16.2a1.7,1.7,0,0,1-1.7-1.7A1.7,1.7,0,0,1,12,12.7a1.8,1.8,0,0,1,1.7,1.8A1.8,1.8,0,0,1,12,16.2Z" transform="translate(-0.7 -0.7)"/><circle class="cls-2" cx="11.3" cy="11.3" r="10.8"/></svg>